<svg xmlns="http://www.w3.org/2000/svg" viewBox="0 0 240 240">
    <rect id="l" x="0" y="0" width="240" height="240" fill="#2b1e3a" rx="40" ry="40" />
    <path id="t1-01" d="M 120 45 l 12.37179 21.42857 l -24.74358 0 z" fill="#c695fe"/>
    <path id="t2-02" d="M 120 87.85714 l -12.37179 -21.42857 l 24.74358 0 z" fill="#c794fe"/>
    <path id="t2-01" d="M 107.62820 66.42857 l 12.37179 21.42857 l -24.74358 0 z" fill="#c097fe"/>
    <path id="t2-03" d="M 132.37179 66.42857 l 12.37179 21.42857 l -24.74358 0 z" fill="#ce91fe"/>
    <path id="t3-02" d="M 107.62820 109.28571 l -12.37179 -21.42857 l 24.74358 0 z" fill="#c196fe"/>
    <path id="t3-04" d="M 132.37179 109.28571 l -12.37179 -21.42857 l 24.74358 0 z" fill="#ce90fe"/>
    <path id="t3-01" d="M 95.25641 87.85714 l 12.37179 21.42857 l -24.74358 0 z" fill="#ba99fe"/>
    <path id="t3-05" d="M 144.74358 87.85714 l 12.37179 21.42857 l -24.74358 0 z" fill="#d68cfe"/>
    <path id="t4-02" d="M 95.25641 130.71428 l -12.37179 -21.42857 l 24.74358 0 z" fill="#bc98fe"/>
    <path id="t4-06" d="M 144.74358 130.71428 l -12.37179 -21.42857 l 24.74358 0 z" fill="#d58cfe"/>
    <path id="t4-01" d="M 82.88462 109.28571 l 12.37179 21.42857 l -24.74358 0 z" fill="#b49cfd"/>
    <path id="t4-07" d="M 157.11537 109.28571 l 12.37179 21.42857 l -24.74358 0 z" fill="#dd88fe"/>
    <path id="t5-02" d="M 82.88462 152.14285 l -12.37179 -21.42857 l 24.74358 0 z" fill="#b69afd"/>
    <path id="t5-04" d="M 107.62820 152.14285 l -12.37179 -21.42857 l 24.74358 0 z" fill="#c394fe"/>
    <path id="t5-06" d="M 132.37179 152.14285 l -12.37179 -21.42857 l 24.74358 0 z" fill="#d08efe"/>
    <path id="t5-08" d="M 157.11537 152.14285 l -12.37179 -21.42857 l 24.74358 0 z" fill="#dd88fe"/>
    <path id="t5-01" d="M 70.51283 130.71428 l 12.37179 21.42857 l -24.74358 0 z" fill="#ae9efd"/>
    <path id="t5-03" d="M 95.25641 130.71428 l 12.37179 21.42857 l -24.74358 0 z" fill="#bc97fd"/>
    <path id="t5-05" d="M 120 130.71428 l 12.37179 21.42857 l -24.74358 0 z" fill="#ca91fe"/>
    <path id="t5-07" d="M 144.74358 130.71428 l 12.37179 21.42857 l -24.74358 0 z" fill="#d78afe"/>
    <path id="t5-09" d="M 169.48716 130.71428 l 12.37179 21.42857 l -24.74358 0 z" fill="#e584fe"/>
    <path id="t6-02" d="M 70.51283 173.57142 l -12.37179 -21.42857 l 24.74358 0 z" fill="#b19cfd"/>
    <path id="t6-10" d="M 169.48716 173.57142 l -12.37179 -21.42857 l 24.74358 0 z" fill="#e484fe"/>
    <path id="t6-01" d="M 58.14104 152.14285 l 12.37179 21.42857 l -24.74358 0 z" fill="#a8a0fd"/>
    <path id="t6-11" d="M 181.85895 152.14285 l 12.37179 21.42857 l -24.74358 0 z" fill="#ed7ffe"/>
    <path id="t7-02" d="M 58.14104 195 l -12.37179 -21.42857 l 24.74358 0 z" fill="#ab9efd"/>
    <path id="t7-12" d="M 181.85895 195 l -12.37179 -21.42857 l 24.74358 0 z" fill="#eb80fe"/>
    <path id="t7-01" d="M 45.76925 173.57142 l 12.37179 21.42857 l -24.74358 0 z" fill="#a2a2fd"/>
    <path id="t7-13" d="M 194.23074 173.57142 l 12.37179 21.42857 l -24.74358 0 z" fill="#f57bfe"/>
</svg>
